<svg xmlns="http://www.w3.org/2000/svg" xmlns:xlink="http://www.w3.org/1999/xlink" width="500" zoomAndPan="magnify" viewBox="0 0 375 374.999991" height="500" preserveAspectRatio="xMidYMid meet" version="1.0"><path fill="#fdb3bc" d="M 290.625 326.976562 C 268.480469 252.542969 250.507812 175.167969 249.996094 97.148438 C 249.953125 90.363281 243.5 85.640625 237.019531 87.257812 C 181.582031 101.070312 125.648438 113.777344 68.933594 121.089844 C 61.898438 121.996094 58.675781 128.488281 59.289062 133.949219 C 59.414062 135.039062 59.175781 136.140625 58.679688 137.121094 C 48.210938 157.789062 50.796875 187.425781 52.785156 207.988281 C 56.347656 244.820312 65.351562 282.238281 81.394531 315.675781 C 96.128906 346.390625 118.953125 354.585938 152.128906 353.195312 C 193.355469 351.46875 236.824219 333.796875 278.015625 339.597656 C 285.3125 340.625 293.085938 335.25 290.625 326.976562 Z M 179 329.992188 C 161.828125 332.449219 143.378906 334.707031 126.160156 331.59375 C 113.5 329.308594 107.738281 321.15625 101.785156 310.527344 C 85.921875 282.179688 78.390625 247.421875 74.152344 215.511719 C 71.570312 196.089844 65.730469 159.125 80.199219 141.640625 C 81.15625 140.480469 82.5 139.710938 83.988281 139.496094 C 130.664062 132.773438 176.804688 122.964844 222.640625 111.890625 C 226.304688 111.007812 229.867188 113.679688 230.027344 117.449219 C 232.839844 182.945312 246.816406 248 264.648438 311.039062 C 265.710938 314.796875 262.9375 318.527344 259.035156 318.644531 C 232.238281 319.457031 205.023438 326.265625 179 329.992188 Z M 179 329.992188 " fill-opacity="1" fill-rule="nonzero"/><path fill="#f0817c" d="M 320.894531 60.582031 C 291.640625 115.867188 279.472656 186.15625 247.875 239.484375 C 232.726562 265.066406 206.5625 290.25 182 279.535156 C 170.957031 274.707031 162.355469 264.386719 154.261719 252.972656 C 145.320312 240.351562 137.777344 230.140625 127.214844 221.738281 C 108.273438 206.679688 125.207031 165.082031 144.15625 180.144531 C 155.457031 189.128906 165.386719 201.070312 174.5625 214.027344 C 177.789062 218.597656 180.976562 223.300781 184.433594 227.527344 C 184.617188 227.75 184.8125 227.957031 185.027344 228.15625 C 185.664062 228.734375 187.636719 230.769531 188.574219 231.640625 C 188.761719 231.8125 188.960938 231.972656 189.171875 232.121094 C 189.234375 232.164062 189.292969 232.203125 189.347656 232.246094 C 189.609375 232.433594 189.890625 232.59375 190.175781 232.738281 C 190.421875 232.859375 190.671875 232.976562 190.925781 233.078125 C 191.351562 233.234375 192.25 233.351562 192.871094 233.433594 C 193.101562 233.464844 193.328125 233.480469 193.558594 233.484375 C 193.921875 233.492188 194.285156 233.503906 194.636719 233.480469 C 194.636719 233.480469 194.640625 233.480469 194.644531 233.480469 C 195.207031 233.425781 195.757812 233.304688 196.285156 233.097656 C 196.339844 233.078125 196.398438 233.054688 196.460938 233.03125 C 197.617188 232.636719 198.769531 232.183594 199.917969 231.65625 C 203.953125 229.683594 207.714844 227.054688 211.347656 223.425781 C 211.636719 223.132812 213.101562 221.445312 213.46875 221.058594 C 213.589844 220.929688 213.707031 220.792969 213.816406 220.65625 C 214.085938 220.328125 214.351562 220.003906 214.613281 219.664062 C 216.082031 217.75 217.539062 215.804688 218.917969 213.742188 C 220.714844 211.050781 222.480469 208.300781 224.132812 205.425781 C 224.804688 204.289062 225.453125 203.128906 226.113281 201.964844 C 226.238281 201.703125 226.394531 201.425781 226.574219 201.078125 C 252.765625 149.90625 265.191406 86.75 291.894531 36.265625 C 297.414062 25.824219 306.253906 20.394531 314.875 27.628906 C 322.054688 33.667969 326.441406 50.09375 320.894531 60.582031 Z M 320.894531 60.582031 " fill-opacity="1" fill-rule="nonzero"/></svg>